<svg xmlns="http://www.w3.org/2000/svg" xmlns:xlink="http://www.w3.org/1999/xlink" width="1125pt" height="222pt" viewBox="0.00 0.00 1125.31 221.60">
<g id="graph0" class="graph" transform="scale(1 1) rotate(0) translate(4 217.6)">
<title>%0</title>
<polygon fill="#ffffff" stroke="transparent" points="-4,4 -4,-217.6 1121.3065,-217.6 1121.3065,4 -4,4"/>
<!-- N5 -->
<g id="node1" class="node">
<title>N5</title>
<polygon fill="#ffff00" stroke="#ffff00" points="54,-36 0,-36 0,0 54,0 54,-36"/>
</g>
<!-- N6 -->
<g id="node2" class="node">
<title>N6</title>
<g id="a_node2"><a xlink:href="http://purl.org/ejp-rd/vocabulary/location" xlink:title="&lt;http://purl.org/ejp-rd/vocabulary/location&gt;">
<ellipse fill="none" stroke="#000000" cx="253" cy="-18" rx="180.926" ry="18"/>
<text text-anchor="middle" x="253" y="-13.8" font-family="Times,serif" font-size="14.00" fill="#000000">&lt;http://purl.org/ejp-rd/vocabulary/location&gt;</text>
</a>
</g>
</g>
<!-- N1 -->
<g id="node3" class="node">
<title>N1</title>
<g id="a_node3"><a xlink:href="http://purl.org/ejp-rd/vocabulary/location" xlink:title="international , Europe ">
<polygon fill="#ffff00" stroke="#ffff00" points="593.6853,-36 452.3147,-36 452.3147,0 593.6853,0 593.6853,-36"/>
<text text-anchor="middle" x="523" y="-13.8" font-family="Times,serif" font-size="14.00" fill="#000000">international , Europe </text>
</a>
</g>
</g>
<!-- N2 -->
<g id="node4" class="node">
<title>N2</title>
<g id="a_node4"><a xlink:href="http://purl.org/ejp-rd/vocabulary/location" xlink:title="EU">
<polygon fill="#ffff00" stroke="#ffff00" points="673,-36 619,-36 619,0 673,0 673,-36"/>
<text text-anchor="middle" x="646" y="-13.8" font-family="Times,serif" font-size="14.00" fill="#000000">EU</text>
</a>
</g>
</g>
<!-- N11 -->
<g id="node5" class="node">
<title>N11</title>
<g id="a_node5"><a xlink:href="http://www.w3.org/ns/dcat#Dataset" xlink:title="dcat:Dataset">
<ellipse fill="none" stroke="#000000" cx="437" cy="-106.8" rx="58.5213" ry="18"/>
<text text-anchor="middle" x="437" y="-102.6" font-family="Times,serif" font-size="14.00" fill="#000000">dcat:Dataset</text>
</a>
</g>
</g>
<!-- N4 -->
<g id="node6" class="node">
<title>N4</title>
<g id="a_node6"><a xlink:href="http://www.w3.org/ns/dcat#Dataset" xlink:title="Brussels">
<polygon fill="#ffff00" stroke="#ffff00" points="807.9377,-36 744.0623,-36 744.0623,0 807.9377,0 807.9377,-36"/>
<text text-anchor="middle" x="776" y="-13.8" font-family="Times,serif" font-size="14.00" fill="#000000">Brussels</text>
</a>
</g>
</g>
<!-- N0 -->
<g id="node7" class="node">
<title>N0</title>
<g id="a_node7"><a xlink:href="ejp:location" xlink:title="&lt;ejp:location&gt;">
<ellipse fill="none" stroke="#000000" cx="581" cy="-106.8" rx="67.54" ry="18"/>
<text text-anchor="middle" x="581" y="-102.6" font-family="Times,serif" font-size="14.00" fill="#000000">&lt;ejp:location&gt;</text>
</a>
</g>
</g>
<!-- N0&#45;&gt;N5 -->
<g id="edge7" class="edge">
<title>N0-&gt;N5</title>
<g id="a_edge7"><a xlink:href="http://schema.org/streetAddress" xlink:title="schema:streetAddress">
<path fill="none" stroke="#000000" d="M532.5736,-94.121C523.4629,-92.0805 513.9784,-90.1867 505,-88.8 312.7232,-59.1028 252.8793,-96.6486 63.8526,-35.7752"/>
<polygon fill="#000000" stroke="#000000" points="64.7601,-32.3896 54.1675,-32.6073 62.5839,-39.0428 64.7601,-32.3896"/>
</a>
</g>
<g id="a_edge7-label"><a xlink:href="http://schema.org/streetAddress" xlink:title="schema:streetAddress">
<text text-anchor="middle" x="282.0281" y="-58.2" font-family="Times,serif" font-size="14.00" fill="#000000">schema:streetAddress</text>
</a>
</g>
</g>
<!-- N0&#45;&gt;N6 -->
<g id="edge6" class="edge">
<title>N0-&gt;N6</title>
<g id="a_edge6"><a xlink:href="http://www.w3.org/1999/02/22-rdf-syntax-ns#type" xlink:title="a">
<path fill="none" stroke="#000000" d="M533.306,-93.8877C478.7467,-79.1168 388.8051,-54.7667 325.5473,-37.6408"/>
<polygon fill="#000000" stroke="#000000" points="326.2006,-34.1918 315.6334,-34.9568 324.3713,-40.9485 326.2006,-34.1918"/>
</a>
</g>
<g id="a_edge6-label"><a xlink:href="http://www.w3.org/1999/02/22-rdf-syntax-ns#type" xlink:title="a">
<text text-anchor="middle" x="450.1073" y="-58.2" font-family="Times,serif" font-size="14.00" fill="#000000">a</text>
</a>
</g>
</g>
<!-- N0&#45;&gt;N1 -->
<g id="edge11" class="edge">
<title>N0-&gt;N1</title>
<g id="a_edge11"><a xlink:href="http://purl.obolibrary.org/obo/NCIT_C45674" xlink:title="ns0:NCIT_C45674">
<path fill="none" stroke="#000000" d="M540.2681,-92.4434C530.9042,-87.1377 522.1092,-80.0738 516.6718,-70.8 512.3561,-63.4393 511.9813,-54.5115 513.2645,-46.1075"/>
<polygon fill="#000000" stroke="#000000" points="516.7,-46.7834 515.4984,-36.2569 509.8733,-45.2352 516.7,-46.7834"/>
</a>
</g>
<g id="a_edge11-label"><a xlink:href="http://purl.obolibrary.org/obo/NCIT_C45674" xlink:title="ns0:NCIT_C45674">
<text text-anchor="middle" x="570.6641" y="-58.2" font-family="Times,serif" font-size="14.00" fill="#000000">ns0:NCIT_C45674</text>
</a>
</g>
</g>
<!-- N0&#45;&gt;N2 -->
<g id="edge10" class="edge">
<title>N0-&gt;N2</title>
<g id="a_edge10"><a xlink:href="http://purl.obolibrary.org/obo/NCIT_C76349" xlink:title="ns0:NCIT_C76349">
<path fill="none" stroke="#000000" d="M605.2428,-89.9232C611.9511,-84.4031 618.8073,-77.8582 624,-70.8 629.4987,-63.3259 633.9142,-54.2739 637.3047,-45.7914"/>
<polygon fill="#000000" stroke="#000000" points="640.6563,-46.8177 640.8176,-36.2241 634.0853,-44.4049 640.6563,-46.8177"/>
</a>
</g>
<g id="a_edge10-label"><a xlink:href="http://purl.obolibrary.org/obo/NCIT_C76349" xlink:title="ns0:NCIT_C76349">
<text text-anchor="middle" x="687.6641" y="-58.2" font-family="Times,serif" font-size="14.00" fill="#000000">ns0:NCIT_C76349</text>
</a>
</g>
</g>
<!-- N0&#45;&gt;N4 -->
<g id="edge8" class="edge">
<title>N0-&gt;N4</title>
<g id="a_edge8"><a xlink:href="http://semanticscience.org/resource/SIO_000665" xlink:title="ns1:SIO_000665">
<path fill="none" stroke="#000000" d="M631.2334,-94.6721C639.8194,-92.6653 648.6582,-90.6405 657,-88.8 695.9833,-80.1988 712.5285,-94.0225 745,-70.8 753.884,-64.4465 760.6305,-54.6873 765.5241,-45.2798"/>
<polygon fill="#000000" stroke="#000000" points="768.7382,-46.6692 769.8107,-36.1287 762.3992,-43.6998 768.7382,-46.6692"/>
</a>
</g>
<g id="a_edge8-label"><a xlink:href="http://semanticscience.org/resource/SIO_000665" xlink:title="ns1:SIO_000665">
<text text-anchor="middle" x="807.4425" y="-58.2" font-family="Times,serif" font-size="14.00" fill="#000000">ns1:SIO_000665</text>
</a>
</g>
</g>
<!-- N3 -->
<g id="node8" class="node">
<title>N3</title>
<g id="a_node8"><a xlink:href="ejp:location" xlink:title="Germany">
<polygon fill="#ffff00" stroke="#ffff00" points="928.0871,-36 859.9129,-36 859.9129,0 928.0871,0 928.0871,-36"/>
<text text-anchor="middle" x="894" y="-13.8" font-family="Times,serif" font-size="14.00" fill="#000000">Germany</text>
</a>
</g>
</g>
<!-- N0&#45;&gt;N3 -->
<g id="edge9" class="edge">
<title>N0-&gt;N3</title>
<g id="a_edge9"><a xlink:href="http://semanticscience.org/resource/SIO_000664" xlink:title="ns1:SIO_000664">
<path fill="none" stroke="#000000" d="M629.4438,-94.2307C638.5528,-92.1796 648.0322,-90.2538 657,-88.8 701.486,-81.5882 820.2799,-93.8601 859,-70.8 868.9531,-64.8723 876.6412,-54.8834 882.2431,-45.1789"/>
<polygon fill="#000000" stroke="#000000" points="885.4555,-46.5882 886.9805,-36.1037 879.2502,-43.3488 885.4555,-46.5882"/>
</a>
</g>
<g id="a_edge9-label"><a xlink:href="http://semanticscience.org/resource/SIO_000664" xlink:title="ns1:SIO_000664">
<text text-anchor="middle" x="923.4425" y="-58.2" font-family="Times,serif" font-size="14.00" fill="#000000">ns1:SIO_000664</text>
</a>
</g>
</g>
<!-- N8 -->
<g id="node9" class="node">
<title>N8</title>
<g id="a_node9"><a xlink:href="ejp:location" xlink:title="International">
<polygon fill="#ffff00" stroke="#ffff00" points="753.5287,-124.8 666.4713,-124.8 666.4713,-88.8 753.5287,-88.8 753.5287,-124.8"/>
<text text-anchor="middle" x="710" y="-102.6" font-family="Times,serif" font-size="14.00" fill="#000000">International</text>
</a>
</g>
</g>
<!-- N7 -->
<g id="node10" class="node">
<title>N7</title>
<g id="a_node10"><a xlink:href="http://example.org/CAT01902019" xlink:title="&lt;http://example.org/CAT01902019&gt;">
<ellipse fill="none" stroke="#000000" cx="702" cy="-195.6" rx="153.7485" ry="18"/>
<text text-anchor="middle" x="702" y="-191.4" font-family="Times,serif" font-size="14.00" fill="#000000">&lt;http://example.org/CAT01902019&gt;</text>
</a>
</g>
</g>
<!-- N7&#45;&gt;N11 -->
<g id="edge1" class="edge">
<title>N7-&gt;N11</title>
<g id="a_edge1"><a xlink:href="http://www.w3.org/1999/02/22-rdf-syntax-ns#type" xlink:title="a">
<path fill="none" stroke="#000000" d="M651.2189,-178.5835C603.795,-162.692 533.4569,-139.1222 486.4634,-123.3749"/>
<polygon fill="#000000" stroke="#000000" points="487.4004,-119.9977 476.8065,-120.1389 485.1762,-126.6349 487.4004,-119.9977"/>
</a>
</g>
<g id="a_edge1-label"><a xlink:href="http://www.w3.org/1999/02/22-rdf-syntax-ns#type" xlink:title="a">
<text text-anchor="middle" x="597.1073" y="-147" font-family="Times,serif" font-size="14.00" fill="#000000">a</text>
</a>
</g>
</g>
<!-- N7&#45;&gt;N0 -->
<g id="edge5" class="edge">
<title>N7-&gt;N0</title>
<g id="a_edge5"><a xlink:href="http://purl.org/dc/terms/spatial" xlink:title="dc:spatial">
<path fill="none" stroke="#000000" d="M672.4399,-177.7624C663.5801,-172.1648 653.9389,-165.8184 645.3492,-159.6 632.9156,-150.5988 619.7217,-139.9773 608.5389,-130.6296"/>
<polygon fill="#000000" stroke="#000000" points="610.6904,-127.8655 600.7912,-124.0896 606.1751,-133.2145 610.6904,-127.8655"/>
</a>
</g>
<g id="a_edge5-label"><a xlink:href="http://purl.org/dc/terms/spatial" xlink:title="dc:spatial">
<text text-anchor="middle" x="672.8254" y="-147" font-family="Times,serif" font-size="14.00" fill="#000000">dc:spatial</text>
</a>
</g>
</g>
<!-- N7&#45;&gt;N8 -->
<g id="edge4" class="edge">
<title>N7-&gt;N8</title>
<g id="a_edge4"><a xlink:href="http://www.w3.org/ns/dcat#distribution" xlink:title="dcat:distribution">
<path fill="none" stroke="#000000" d="M701.6971,-177.4702C701.7082,-167.2603 702.0253,-154.29 703.2314,-142.8 703.4986,-140.2543 703.8491,-137.6191 704.2501,-134.9856"/>
<polygon fill="#000000" stroke="#000000" points="707.7165,-135.4806 705.9776,-125.0294 700.8195,-134.2839 707.7165,-135.4806"/>
</a>
</g>
<g id="a_edge4-label"><a xlink:href="http://www.w3.org/ns/dcat#distribution" xlink:title="dcat:distribution">
<text text-anchor="middle" x="749.8843" y="-147" font-family="Times,serif" font-size="14.00" fill="#000000">dcat:distribution</text>
</a>
</g>
</g>
<!-- N9 -->
<g id="node11" class="node">
<title>N9</title>
<g id="a_node11"><a xlink:href="http://example.org/CAT01902019" xlink:title="EJPRDEU">
<polygon fill="#ffff00" stroke="#ffff00" points="854.8823,-124.8 779.1177,-124.8 779.1177,-88.8 854.8823,-88.8 854.8823,-124.8"/>
<text text-anchor="middle" x="817" y="-102.6" font-family="Times,serif" font-size="14.00" fill="#000000">EJPRDEU</text>
</a>
</g>
</g>
<!-- N7&#45;&gt;N9 -->
<g id="edge3" class="edge">
<title>N7-&gt;N9</title>
<g id="a_edge3"><a xlink:href="http://www.w3.org/ns/prov#wasGeneratedBy" xlink:title="prov:wasGeneratedBy">
<path fill="none" stroke="#000000" d="M765.1614,-179.1671C776.0565,-174.2105 786.5699,-167.8182 795,-159.6 801.923,-152.851 806.7622,-143.5987 810.1013,-134.7233"/>
<polygon fill="#000000" stroke="#000000" points="813.4939,-135.6086 813.2649,-125.0163 806.8384,-133.4395 813.4939,-135.6086"/>
</a>
</g>
<g id="a_edge3-label"><a xlink:href="http://www.w3.org/ns/prov#wasGeneratedBy" xlink:title="prov:wasGeneratedBy">
<text text-anchor="middle" x="869.5849" y="-147" font-family="Times,serif" font-size="14.00" fill="#000000">prov:wasGeneratedBy</text>
</a>
</g>
</g>
<!-- N10 -->
<g id="node12" class="node">
<title>N10</title>
<g id="a_node12"><a xlink:href="http://example.org/CAT01902019" xlink:title="Biobank, Registries,Services,Documents">
<polygon fill="#ffff00" stroke="#ffff00" points="1117.1133,-124.8 872.8867,-124.8 872.8867,-88.8 1117.1133,-88.8 1117.1133,-124.8"/>
<text text-anchor="middle" x="995" y="-102.6" font-family="Times,serif" font-size="14.00" fill="#000000">Biobank, Registries,Services,Documents</text>
</a>
</g>
</g>
<!-- N7&#45;&gt;N10 -->
<g id="edge2" class="edge">
<title>N7-&gt;N10</title>
<g id="a_edge2"><a xlink:href="http://purl.obolibrary.org/obo/NCIT_C45674" xlink:title="ns0:NCIT_C45674">
<path fill="none" stroke="#000000" d="M818.878,-183.8558C866.3097,-177.8046 914.8625,-169.5853 936,-159.6 949.6678,-153.1433 962.4802,-142.4908 972.6501,-132.4386"/>
<polygon fill="#000000" stroke="#000000" points="975.4543,-134.5732 979.8824,-124.9481 970.4185,-129.711 975.4543,-134.5732"/>
</a>
</g>
<g id="a_edge2-label"><a xlink:href="http://purl.obolibrary.org/obo/NCIT_C45674" xlink:title="ns0:NCIT_C45674">
<text text-anchor="middle" x="1014.6641" y="-147" font-family="Times,serif" font-size="14.00" fill="#000000">ns0:NCIT_C45674</text>
</a>
</g>
</g>
</g>
</svg>