<svg xmlns="http://www.w3.org/2000/svg" xmlns:xlink="http://www.w3.org/1999/xlink" width="1169pt" height="133pt" viewBox="0.00 0.00 1168.92 132.80">
<g id="graph0" class="graph" transform="scale(1 1) rotate(0) translate(4 128.8)">
<title>%0</title>
<polygon fill="#ffffff" stroke="transparent" points="-4,4 -4,-128.8 1164.9208,-128.8 1164.9208,4 -4,4"/>
<!-- N1 -->
<g id="node1" class="node">
<title>N1</title>
<polygon fill="#ffff00" stroke="#ffff00" points="141.2779,-36 -.0927,-36 -.0927,0 141.2779,0 141.2779,-36"/>
<text text-anchor="middle" x="70.5926" y="-13.8" font-family="Times,serif" font-size="14.00" fill="#000000">international , Europe </text>
</g>
<!-- N7 -->
<g id="node2" class="node">
<title>N7</title>
<g id="a_node2"><a xlink:href="http://purl.org/ejp-rd/vocabulary/Location" xlink:title="&lt;http://purl.org/ejp-rd/vocabulary/Location&gt;">
<ellipse fill="none" stroke="#000000" cx="343.5926" cy="-18" rx="184.3577" ry="18"/>
<text text-anchor="middle" x="343.5926" y="-13.8" font-family="Times,serif" font-size="14.00" fill="#000000">&lt;http://purl.org/ejp-rd/vocabulary/Location&gt;</text>
</a>
</g>
</g>
<!-- N3 -->
<g id="node3" class="node">
<title>N3</title>
<g id="a_node3"><a xlink:href="http://purl.org/ejp-rd/vocabulary/Location" xlink:title="Bulgaria">
<polygon fill="#ffff00" stroke="#ffff00" points="609.8005,-36 545.3847,-36 545.3847,0 609.8005,0 609.8005,-36"/>
<text text-anchor="middle" x="577.5926" y="-13.8" font-family="Times,serif" font-size="14.00" fill="#000000">Bulgaria</text>
</a>
</g>
</g>
<!-- N4 -->
<g id="node4" class="node">
<title>N4</title>
<g id="a_node4"><a xlink:href="http://purl.org/ejp-rd/vocabulary/Location" xlink:title="Brussels">
<polygon fill="#ffff00" stroke="#ffff00" points="709.5303,-36 645.6549,-36 645.6549,0 709.5303,0 709.5303,-36"/>
<text text-anchor="middle" x="677.5926" y="-13.8" font-family="Times,serif" font-size="14.00" fill="#000000">Brussels</text>
</a>
</g>
</g>
<!-- N5 -->
<g id="node5" class="node">
<title>N5</title>
<g id="a_node5"><a xlink:href="http://purl.org/ejp-rd/vocabulary/Location" xlink:title="AJ9038498">
<polygon fill="#ffff00" stroke="#ffff00" points="834.645,-36 754.5402,-36 754.5402,0 834.645,0 834.645,-36"/>
<text text-anchor="middle" x="794.5926" y="-13.8" font-family="Times,serif" font-size="14.00" fill="#000000">AJ9038498</text>
</a>
</g>
</g>
<!-- N6 -->
<g id="node6" class="node">
<title>N6</title>
<g id="a_node6"><a xlink:href="http://purl.org/ejp-rd/vocabulary/Location" xlink:title="Road 24, EJPRD Estate">
<polygon fill="#ffff00" stroke="#ffff00" points="1002.0744,-36 853.1108,-36 853.1108,0 1002.0744,0 1002.0744,-36"/>
<text text-anchor="middle" x="927.5926" y="-13.8" font-family="Times,serif" font-size="14.00" fill="#000000">Road 24, EJPRD Estate</text>
</a>
</g>
</g>
<!-- N2 -->
<g id="node7" class="node">
<title>N2</title>
<g id="a_node7"><a xlink:href="http://purl.org/ejp-rd/vocabulary/Location" xlink:title="Europe">
<polygon fill="#ffff00" stroke="#ffff00" points="1100.022,-36 1043.1632,-36 1043.1632,0 1100.022,0 1100.022,-36"/>
<text text-anchor="middle" x="1071.5926" y="-13.8" font-family="Times,serif" font-size="14.00" fill="#000000">Europe</text>
</a>
</g>
</g>
<!-- N0 -->
<g id="node8" class="node">
<title>N0</title>
<g id="a_node8"><a xlink:href="http://example.org/EBI0939409220" xlink:title="&lt;http://example.org/EBI0939409220&gt;">
<ellipse fill="none" stroke="#000000" cx="677.5926" cy="-106.8" rx="159.5492" ry="18"/>
<text text-anchor="middle" x="677.5926" y="-102.6" font-family="Times,serif" font-size="14.00" fill="#000000">&lt;http://example.org/EBI0939409220&gt;</text>
</a>
</g>
</g>
<!-- N0&#45;&gt;N1 -->
<g id="edge7" class="edge">
<title>N0-&gt;N1</title>
<g id="a_edge7"><a xlink:href="http://purl.obolibrary.org/obo/NCIT_C45674" xlink:title="ns2:NCIT_C45674">
<path fill="none" stroke="#000000" d="M559.2498,-94.7147C454.4489,-83.1295 297.2456,-63.5977 151.2562,-36.0585"/>
<polygon fill="#000000" stroke="#000000" points="151.6894,-32.5782 141.2115,-34.1475 150.3811,-39.4549 151.6894,-32.5782"/>
</a>
</g>
<g id="a_edge7-label"><a xlink:href="http://purl.obolibrary.org/obo/NCIT_C45674" xlink:title="ns2:NCIT_C45674">
<text text-anchor="middle" x="406.2567" y="-58.2" font-family="Times,serif" font-size="14.00" fill="#000000">ns2:NCIT_C45674</text>
</a>
</g>
</g>
<!-- N0&#45;&gt;N7 -->
<g id="edge1" class="edge">
<title>N0-&gt;N7</title>
<g id="a_edge1"><a xlink:href="http://www.w3.org/1999/02/22-rdf-syntax-ns#type" xlink:title="a">
<path fill="none" stroke="#000000" d="M615.1616,-90.2016C559.0011,-75.2703 476.4401,-53.3199 417.1066,-37.545"/>
<polygon fill="#000000" stroke="#000000" points="417.9854,-34.1572 407.4218,-34.9702 416.1867,-40.9221 417.9854,-34.1572"/>
</a>
</g>
<g id="a_edge1-label"><a xlink:href="http://www.w3.org/1999/02/22-rdf-syntax-ns#type" xlink:title="a">
<text text-anchor="middle" x="543.6999" y="-58.2" font-family="Times,serif" font-size="14.00" fill="#000000">a</text>
</a>
</g>
</g>
<!-- N0&#45;&gt;N3 -->
<g id="edge5" class="edge">
<title>N0-&gt;N3</title>
<g id="a_edge5"><a xlink:href="http://semanticscience.org/resource/SIO_000664" xlink:title="ns1:SIO_000664">
<path fill="none" stroke="#000000" d="M614.9191,-90.1843C598.3667,-84.49 583.7065,-77.7817 578.7076,-70.8 573.6985,-63.8041 572.2121,-54.8421 572.3387,-46.2955"/>
<polygon fill="#000000" stroke="#000000" points="575.8344,-46.4896 573.1648,-36.2367 568.8579,-45.9166 575.8344,-46.4896"/>
</a>
</g>
<g id="a_edge5-label"><a xlink:href="http://semanticscience.org/resource/SIO_000664" xlink:title="ns1:SIO_000664">
<text text-anchor="middle" x="627.0351" y="-58.2" font-family="Times,serif" font-size="14.00" fill="#000000">ns1:SIO_000664</text>
</a>
</g>
</g>
<!-- N0&#45;&gt;N4 -->
<g id="edge4" class="edge">
<title>N0-&gt;N4</title>
<g id="a_edge4"><a xlink:href="http://semanticscience.org/resource/SIO_000665" xlink:title="ns1:SIO_000665">
<path fill="none" stroke="#000000" d="M677.5926,-88.4006C677.5926,-76.2949 677.5926,-60.2076 677.5926,-46.4674"/>
<polygon fill="#000000" stroke="#000000" points="681.0927,-46.072 677.5926,-36.072 674.0927,-46.0721 681.0927,-46.072"/>
</a>
</g>
<g id="a_edge4-label"><a xlink:href="http://semanticscience.org/resource/SIO_000665" xlink:title="ns1:SIO_000665">
<text text-anchor="middle" x="725.0351" y="-58.2" font-family="Times,serif" font-size="14.00" fill="#000000">ns1:SIO_000665</text>
</a>
</g>
</g>
<!-- N0&#45;&gt;N5 -->
<g id="edge3" class="edge">
<title>N0-&gt;N5</title>
<g id="a_edge3"><a xlink:href="http://purl.allotrope.org/ontologies/common#AFC_0000050" xlink:title="ns0:AFC_0000050">
<path fill="none" stroke="#000000" d="M743.8774,-90.336C754.7596,-85.4011 765.2038,-79.0246 773.5926,-70.8 780.4509,-64.076 785.13,-54.8297 788.2954,-45.952"/>
<polygon fill="#000000" stroke="#000000" points="791.6881,-46.8259 791.2617,-36.2397 784.9933,-44.7812 791.6881,-46.8259"/>
</a>
</g>
<g id="a_edge3-label"><a xlink:href="http://purl.allotrope.org/ontologies/common#AFC_0000050" xlink:title="ns0:AFC_0000050">
<text text-anchor="middle" x="838.8731" y="-58.2" font-family="Times,serif" font-size="14.00" fill="#000000">ns0:AFC_0000050</text>
</a>
</g>
</g>
<!-- N0&#45;&gt;N6 -->
<g id="edge2" class="edge">
<title>N0-&gt;N6</title>
<g id="a_edge2"><a xlink:href="http://schema.org/streetAddress" xlink:title="schema:streetAddress">
<path fill="none" stroke="#000000" d="M802.1131,-95.5027C842.1451,-89.9313 880.35,-81.9459 896.5926,-70.8 905.664,-64.5751 912.4675,-54.7531 917.3541,-45.2601"/>
<polygon fill="#000000" stroke="#000000" points="920.6048,-46.5688 921.6147,-36.0223 914.2483,-43.6371 920.6048,-46.5688"/>
</a>
</g>
<g id="a_edge2-label"><a xlink:href="http://schema.org/streetAddress" xlink:title="schema:streetAddress">
<text text-anchor="middle" x="972.6207" y="-58.2" font-family="Times,serif" font-size="14.00" fill="#000000">schema:streetAddress</text>
</a>
</g>
</g>
<!-- N0&#45;&gt;N2 -->
<g id="edge6" class="edge">
<title>N0-&gt;N2</title>
<g id="a_edge6"><a xlink:href="http://purl.obolibrary.org/obo/NCIT_C76349" xlink:title="ns2:NCIT_C76349">
<path fill="none" stroke="#000000" d="M819.3246,-98.4953C911.7959,-92.07 1018.7408,-82.3369 1037.5926,-70.8 1047.3884,-64.8052 1054.8793,-54.8044 1060.3035,-45.1092"/>
<polygon fill="#000000" stroke="#000000" points="1063.4957,-46.5524 1064.8787,-36.0482 1057.247,-43.3972 1063.4957,-46.5524"/>
</a>
</g>
<g id="a_edge6-label"><a xlink:href="http://purl.obolibrary.org/obo/NCIT_C76349" xlink:title="ns2:NCIT_C76349">
<text text-anchor="middle" x="1107.2567" y="-58.2" font-family="Times,serif" font-size="14.00" fill="#000000">ns2:NCIT_C76349</text>
</a>
</g>
</g>
</g>
</svg>