<svg xmlns="http://www.w3.org/2000/svg" xmlns:xlink="http://www.w3.org/1999/xlink" width="3156pt" height="133pt" viewBox="0.00 0.00 3156.09 132.80">
<g id="graph0" class="graph" transform="scale(1 1) rotate(0) translate(4 128.8)">
<title>%0</title>
<polygon fill="#ffffff" stroke="transparent" points="-4,4 -4,-128.8 3152.088,-128.8 3152.088,4 -4,4"/>
<!-- N3 -->
<g id="node1" class="node">
<title>N3</title>
<polygon fill="#ffff00" stroke="#ffff00" points="82.4304,-36 28.4304,-36 28.4304,0 82.4304,0 82.4304,-36"/>
</g>
<!-- N0 -->
<g id="node2" class="node">
<title>N0</title>
<g id="a_node2"><a xlink:href="http://example.org/EBI09394092020" xlink:title="&lt;http://example.org/EBI09394092020&gt;">
<ellipse fill="none" stroke="#000000" cx="1144.4304" cy="-106.8" rx="164.2062" ry="18"/>
<text text-anchor="middle" x="1144.4304" y="-102.6" font-family="Times,serif" font-size="14.00" fill="#000000">&lt;http://example.org/EBI09394092020&gt;</text>
</a>
</g>
</g>
<!-- N0&#45;&gt;N3 -->
<g id="edge2" class="edge">
<title>N0-&gt;N3</title>
<g id="a_edge2"><a xlink:href="http://www.w3.org/ns/odrl/2/hasPolicy" xlink:title="odrl:hasPolicy">
<path fill="none" stroke="#000000" d="M981.282,-104.5536C670.1692,-99.8784 21.294,-88.0801 4.551,-70.8 -6.2603,-59.6419 4.8011,-47.1222 19.337,-37.0753"/>
<polygon fill="#000000" stroke="#000000" points="21.592,-39.7895 28.158,-31.4746 17.8398,-33.8801 21.592,-39.7895"/>
</a>
</g>
<g id="a_edge2-label"><a xlink:href="http://www.w3.org/ns/odrl/2/hasPolicy" xlink:title="odrl:hasPolicy">
<text text-anchor="middle" x="45.8701" y="-58.2" font-family="Times,serif" font-size="14.00" fill="#000000">odrl:hasPolicy</text>
</a>
</g>
</g>
<!-- N0&#45;&gt;N3 -->
<g id="edge5" class="edge">
<title>N0-&gt;N3</title>
<g id="a_edge5"><a xlink:href="http://www.w3.org/ns/dcat#qualifiedRelation" xlink:title="dcat:qualifiedRelation">
<path fill="none" stroke="#000000" d="M981.6607,-104.2718C699.8568,-99.4554 147.2444,-87.897 108.0208,-70.8 100.8213,-67.6618 88.6225,-55.6251 77.7854,-43.8358"/>
<polygon fill="#000000" stroke="#000000" points="80.2197,-41.3087 70.9267,-36.2202 75.0182,-45.9932 80.2197,-41.3087"/>
</a>
</g>
<g id="a_edge5-label"><a xlink:href="http://www.w3.org/ns/dcat#qualifiedRelation" xlink:title="dcat:qualifiedRelation">
<text text-anchor="middle" x="170.6352" y="-58.2" font-family="Times,serif" font-size="14.00" fill="#000000">dcat:qualifiedRelation</text>
</a>
</g>
</g>
<!-- N0&#45;&gt;N3 -->
<g id="edge6" class="edge">
<title>N0-&gt;N3</title>
<g id="a_edge6"><a xlink:href="http://www.w3.org/ns/prov#qualifiedAttribution" xlink:title="prov:qualifiedAttribution">
<path fill="none" stroke="#000000" d="M980.2944,-105.2233C742.2419,-102.1664 322.2407,-93.5914 255.8974,-70.8 243.7663,-66.6325 244.37,-58.688 232.4304,-54 176.4969,-32.0383 154.0837,-52.2048 92.3773,-35.6045"/>
<polygon fill="#000000" stroke="#000000" points="93.1334,-32.1794 82.5538,-32.7466 91.178,-38.9007 93.1334,-32.1794"/>
</a>
</g>
<g id="a_edge6-label"><a xlink:href="http://www.w3.org/ns/prov#qualifiedAttribution" xlink:title="prov:qualifiedAttribution">
<text text-anchor="middle" x="327.1969" y="-58.2" font-family="Times,serif" font-size="14.00" fill="#000000">prov:qualifiedAttribution</text>
</a>
</g>
</g>
<!-- N0&#45;&gt;N3 -->
<g id="edge9" class="edge">
<title>N0-&gt;N3</title>
<g id="a_edge9"><a xlink:href="http://purl.org/dc/terms/type" xlink:title="dc:type">
<path fill="none" stroke="#000000" d="M982.4397,-103.6865C785.1116,-99.1248 471.5784,-89.1094 420.22,-70.8 408.3673,-66.5745 409.2638,-58.2793 397.4304,-54 272.318,-8.7553 225.2583,-68.2648 92.2238,-35.477"/>
<polygon fill="#000000" stroke="#000000" points="93.0529,-32.0763 82.4945,-32.954 91.2958,-38.8522 93.0529,-32.0763"/>
</a>
</g>
<g id="a_edge9-label"><a xlink:href="http://purl.org/dc/terms/type" xlink:title="dc:type">
<text text-anchor="middle" x="441.0356" y="-58.2" font-family="Times,serif" font-size="14.00" fill="#000000">dc:type</text>
</a>
</g>
</g>
<!-- N0&#45;&gt;N3 -->
<g id="edge14" class="edge">
<title>N0-&gt;N3</title>
<g id="a_edge14"><a xlink:href="http://purl.org/dc/terms/relation" xlink:title="dc:relation">
<path fill="none" stroke="#000000" d="M983.8244,-102.786C803.5881,-97.5325 530.275,-87.0371 484.5636,-70.8 472.5899,-66.5468 473.4166,-58.2179 461.4304,-54 386.5084,-27.6353 185.854,-54.8037 92.2775,-35.307"/>
<polygon fill="#000000" stroke="#000000" points="93.0241,-31.887 82.4863,-32.9851 91.4088,-38.6981 93.0241,-31.887"/>
</a>
</g>
<g id="a_edge14-label"><a xlink:href="http://purl.org/dc/terms/relation" xlink:title="dc:relation">
<text text-anchor="middle" x="515.3638" y="-58.2" font-family="Times,serif" font-size="14.00" fill="#000000">dc:relation</text>
</a>
</g>
</g>
<!-- N0&#45;&gt;N3 -->
<g id="edge15" class="edge">
<title>N0-&gt;N3</title>
<g id="a_edge15"><a xlink:href="http://purl.org/dc/terms/identifier" xlink:title="dc:identifier">
<path fill="none" stroke="#000000" d="M986.765,-101.5835C829.3723,-95.6347 605.4768,-84.8817 567.0124,-70.8 555.2656,-66.4995 556.2249,-58.1678 544.4304,-54 452.2233,-21.4174 204.1205,-58.7706 92.2299,-35.3066"/>
<polygon fill="#000000" stroke="#000000" points="93.0151,-31.8958 82.4792,-33.0123 91.4117,-38.7097 93.0151,-31.8958"/>
</a>
</g>
<g id="a_edge15-label"><a xlink:href="http://purl.org/dc/terms/identifier" xlink:title="dc:identifier">
<text text-anchor="middle" x="601.6394" y="-58.2" font-family="Times,serif" font-size="14.00" fill="#000000">dc:identifier</text>
</a>
</g>
</g>
<!-- N0&#45;&gt;N3 -->
<g id="edge17" class="edge">
<title>N0-&gt;N3</title>
<g id="a_edge17"><a xlink:href="http://purl.org/dc/terms/rights" xlink:title="dc:rights">
<path fill="none" stroke="#000000" d="M992.8117,-99.759C861.9886,-92.9937 689.3087,-82.1494 658.4388,-70.8 646.5547,-66.4308 647.4013,-58.1255 635.4304,-54 523.9793,-15.5907 224.4106,-63.194 92.4408,-35.3642"/>
<polygon fill="#000000" stroke="#000000" points="93.0084,-31.9025 82.474,-33.0326 91.4139,-38.7185 93.0084,-31.9025"/>
</a>
</g>
<g id="a_edge17-label"><a xlink:href="http://purl.org/dc/terms/rights" xlink:title="dc:rights">
<text text-anchor="middle" x="683.9262" y="-58.2" font-family="Times,serif" font-size="14.00" fill="#000000">dc:rights</text>
</a>
</g>
</g>
<!-- N0&#45;&gt;N3 -->
<g id="edge18" class="edge">
<title>N0-&gt;N3</title>
<g id="a_edge18"><a xlink:href="http://purl.org/dc/terms/isReferencedBy" xlink:title="dc:isReferencedBy">
<path fill="none" stroke="#000000" d="M998.0081,-98.599C887.8555,-91.6845 751.772,-81.2676 726.9226,-70.8 716.3827,-66.3601 718.0921,-58.1388 707.4304,-54 645.9663,-30.1404 193.307,-51.0273 92.5142,-35.0595"/>
<polygon fill="#000000" stroke="#000000" points="92.9642,-31.5802 82.4711,-33.0445 91.5871,-38.4434 92.9642,-31.5802"/>
</a>
</g>
<g id="a_edge18-label"><a xlink:href="http://purl.org/dc/terms/isReferencedBy" xlink:title="dc:isReferencedBy">
<text text-anchor="middle" x="780.6843" y="-58.2" font-family="Times,serif" font-size="14.00" fill="#000000">dc:isReferencedBy</text>
</a>
</g>
</g>
<!-- N11 -->
<g id="node3" class="node">
<title>N11</title>
<g id="a_node3"><a xlink:href="http://example.org/EBI09394092020" xlink:title="&lt;http://rdflicense.appspot.com/rdflicense/cc-by-nc-nd3.0&gt;">
<polygon fill="#ffff00" stroke="#ffff00" points="444.116,-36 100.7447,-36 100.7447,0 444.116,0 444.116,-36"/>
<text text-anchor="middle" x="272.4304" y="-13.8" font-family="Times,serif" font-size="14.00" fill="#000000">&lt;http://rdflicense.appspot.com/rdflicense/cc-by-nc-nd3.0&gt;</text>
</a>
</g>
</g>
<!-- N0&#45;&gt;N11 -->
<g id="edge3" class="edge">
<title>N0-&gt;N11</title>
<g id="a_edge3"><a xlink:href="http://purl.org/dc/terms/license" xlink:title="dc:license">
<path fill="none" stroke="#000000" d="M1021.0232,-94.9031C961.7403,-88.3276 897.5694,-79.7019 869.4556,-70.8 854.1324,-65.9481 852.9424,-58.2094 837.4304,-54 757.803,-32.3921 553.2635,-41.5428 454.4611,-35.9682"/>
<polygon fill="#000000" stroke="#000000" points="454.5833,-32.4689 444.379,-35.319 454.1334,-39.4545 454.5833,-32.4689"/>
</a>
</g>
<g id="a_edge3-label"><a xlink:href="http://purl.org/dc/terms/license" xlink:title="dc:license">
<text text-anchor="middle" x="898.4178" y="-58.2" font-family="Times,serif" font-size="14.00" fill="#000000">dc:license</text>
</a>
</g>
</g>
<!-- N9 -->
<g id="node4" class="node">
<title>N9</title>
<g id="a_node4"><a xlink:href="http://example.org/EBI09394092020" xlink:title="&lt;https://ejprd.fair-dtls.surf-hosted.nl/orphanet-catalog-fdp/catalog/33f4999d-4852-4d87-ad15-5e29aba4f6dd&gt;">
<polygon fill="#ffff00" stroke="#ffff00" points="1094.8687,-36 461.992,-36 461.992,0 1094.8687,0 1094.8687,-36"/>
<text text-anchor="middle" x="778.4304" y="-13.8" font-family="Times,serif" font-size="14.00" fill="#000000">&lt;https://ejprd.fair-dtls.surf-hosted.nl/orphanet-catalog-fdp/catalog/33f4999d-4852-4d87-ad15-5e29aba4f6dd&gt;</text>
</a>
</g>
</g>
<!-- N0&#45;&gt;N9 -->
<g id="edge8" class="edge">
<title>N0-&gt;N9</title>
<g id="a_edge8"><a xlink:href="http://purl.org/dc/elements/1.1/isPartOf" xlink:title="dc11:isPartOf">
<path fill="none" stroke="#000000" d="M1076.4464,-90.3055C1015.9816,-75.6354 927.345,-54.1301 862.4555,-38.3864"/>
<polygon fill="#000000" stroke="#000000" points="863.2003,-34.9657 852.657,-36.0091 861.5498,-41.7683 863.2003,-34.9657"/>
</a>
</g>
<g id="a_edge8-label"><a xlink:href="http://purl.org/dc/elements/1.1/isPartOf" xlink:title="dc11:isPartOf">
<text text-anchor="middle" x="1033.3084" y="-58.2" font-family="Times,serif" font-size="14.00" fill="#000000">dc11:isPartOf</text>
</a>
</g>
</g>
<!-- N8 -->
<g id="node5" class="node">
<title>N8</title>
<g id="a_node5"><a xlink:href="http://example.org/EBI09394092020" xlink:title="Biobank">
<polygon fill="#ffff00" stroke="#ffff00" points="1176.3737,-36 1112.487,-36 1112.487,0 1176.3737,0 1176.3737,-36"/>
<text text-anchor="middle" x="1144.4304" y="-13.8" font-family="Times,serif" font-size="14.00" fill="#000000">Biobank</text>
</a>
</g>
</g>
<!-- N0&#45;&gt;N8 -->
<g id="edge10" class="edge">
<title>N0-&gt;N8</title>
<g id="a_edge10"><a xlink:href="http://www.w3.org/ns/dcat#keyword" xlink:title="dcat:keyword">
<path fill="none" stroke="#000000" d="M1144.4304,-88.4006C1144.4304,-76.2949 1144.4304,-60.2076 1144.4304,-46.4674"/>
<polygon fill="#000000" stroke="#000000" points="1147.9305,-46.072 1144.4304,-36.072 1140.9305,-46.0721 1147.9305,-46.072"/>
</a>
</g>
<g id="a_edge10-label"><a xlink:href="http://www.w3.org/ns/dcat#keyword" xlink:title="dcat:keyword">
<text text-anchor="middle" x="1182.5265" y="-58.2" font-family="Times,serif" font-size="14.00" fill="#000000">dcat:keyword</text>
</a>
</g>
</g>
<!-- N5 -->
<g id="node6" class="node">
<title>N5</title>
<g id="a_node6"><a xlink:href="http://example.org/EBI09394092020" xlink:title="A multicenter registry for nasopharyngeal cancer in children, adolescents and young adults">
<polygon fill="#ffff00" stroke="#ffff00" points="1719.1959,-36 1193.6649,-36 1193.6649,0 1719.1959,0 1719.1959,-36"/>
<text text-anchor="middle" x="1456.4304" y="-13.8" font-family="Times,serif" font-size="14.00" fill="#000000">A multicenter registry for nasopharyngeal cancer in children, adolescents and young adults</text>
</a>
</g>
</g>
<!-- N0&#45;&gt;N5 -->
<g id="edge7" class="edge">
<title>N0-&gt;N5</title>
<g id="a_edge7"><a xlink:href="http://purl.org/dc/terms/description" xlink:title="dc:description">
<path fill="none" stroke="#000000" d="M1191.3955,-89.495C1222.0904,-78.5278 1263.1907,-64.4856 1300.119,-54 1319.6874,-48.4436 1340.8152,-43.1271 1361.0192,-38.3659"/>
<polygon fill="#000000" stroke="#000000" points="1361.9076,-41.7527 1370.8524,-36.0746 1360.319,-34.9354 1361.9076,-41.7527"/>
</a>
</g>
<g id="a_edge7-label"><a xlink:href="http://purl.org/dc/terms/description" xlink:title="dc:description">
<text text-anchor="middle" x="1340.0861" y="-58.2" font-family="Times,serif" font-size="14.00" fill="#000000">dc:description</text>
</a>
</g>
</g>
<!-- N0&#45;&gt;N5 -->
<g id="edge13" class="edge">
<title>N0-&gt;N5</title>
<g id="a_edge13"><a xlink:href="http://purl.org/dc/terms/title" xlink:title="dc:title">
<path fill="none" stroke="#000000" d="M1259.9968,-93.9679C1307.9121,-87.6423 1357.4082,-79.5078 1379.4304,-70.8 1396.6565,-63.9886 1413.8476,-52.7365 1427.602,-42.3657"/>
<polygon fill="#000000" stroke="#000000" points="1429.9495,-44.9739 1435.6915,-36.07 1425.6502,-39.4497 1429.9495,-44.9739"/>
</a>
</g>
<g id="a_edge13-label"><a xlink:href="http://purl.org/dc/terms/title" xlink:title="dc:title">
<text text-anchor="middle" x="1430.8715" y="-58.2" font-family="Times,serif" font-size="14.00" fill="#000000">dc:title</text>
</a>
</g>
</g>
<!-- N1 -->
<g id="node7" class="node">
<title>N1</title>
<g id="a_node7"><a xlink:href="http://example.org/EBI09394092020" xlink:title="OPEN Rule">
<polygon fill="#ffff00" stroke="#ffff00" points="1819.9221,-36 1736.9387,-36 1736.9387,0 1819.9221,0 1819.9221,-36"/>
<text text-anchor="middle" x="1778.4304" y="-13.8" font-family="Times,serif" font-size="14.00" fill="#000000">OPEN Rule</text>
</a>
</g>
</g>
<!-- N0&#45;&gt;N1 -->
<g id="edge21" class="edge">
<title>N0-&gt;N1</title>
<g id="a_edge21"><a xlink:href="http://purl.org/dc/terms/conformsTo" xlink:title="dc:conformsTo">
<path fill="none" stroke="#000000" d="M1290.3813,-98.4725C1406.9691,-89.6396 1574.2194,-72.0793 1727.122,-36.042"/>
<polygon fill="#000000" stroke="#000000" points="1728.2588,-39.369 1737.172,-33.6414 1726.6325,-32.5605 1728.2588,-39.369"/>
</a>
</g>
<g id="a_edge21-label"><a xlink:href="http://purl.org/dc/terms/conformsTo" xlink:title="dc:conformsTo">
<text text-anchor="middle" x="1677.1948" y="-58.2" font-family="Times,serif" font-size="14.00" fill="#000000">dc:conformsTo</text>
</a>
</g>
</g>
<!-- N7 -->
<g id="node8" class="node">
<title>N7</title>
<g id="a_node8"><a xlink:href="http://www.w3.org/ns/dcat#Resource" xlink:title="dcat:Resource">
<ellipse fill="none" stroke="#000000" cx="1903.4304" cy="-18" rx="65.9677" ry="18"/>
<text text-anchor="middle" x="1903.4304" y="-13.8" font-family="Times,serif" font-size="14.00" fill="#000000">dcat:Resource</text>
</a>
</g>
</g>
<!-- N0&#45;&gt;N7 -->
<g id="edge11" class="edge">
<title>N0-&gt;N7</title>
<g id="a_edge11"><a xlink:href="http://www.w3.org/1999/02/22-rdf-syntax-ns#type" xlink:title="a">
<path fill="none" stroke="#000000" d="M1300.5179,-101.0643C1444.0414,-95.0691 1646.0621,-84.6088 1724.4304,-70.8 1769.2009,-62.9113 1818.6659,-47.8091 1854.2308,-35.7704"/>
<polygon fill="#000000" stroke="#000000" points="1855.5525,-39.0173 1863.8779,-32.4646 1853.2833,-32.3953 1855.5525,-39.0173"/>
</a>
</g>
<g id="a_edge11-label"><a xlink:href="http://www.w3.org/1999/02/22-rdf-syntax-ns#type" xlink:title="a">
<text text-anchor="middle" x="1797.5377" y="-58.2" font-family="Times,serif" font-size="14.00" fill="#000000">a</text>
</a>
</g>
</g>
<!-- N10 -->
<g id="node9" class="node">
<title>N10</title>
<g id="a_node9"><a xlink:href="http://www.w3.org/ns/dcat#Resource" xlink:title="&lt;mailto:contact.orphanet@inserm.fr&gt; ">
<polygon fill="#ffff00" stroke="#ffff00" points="2219.1076,-36 1987.7532,-36 1987.7532,0 2219.1076,0 2219.1076,-36"/>
<text text-anchor="middle" x="2103.4304" y="-13.8" font-family="Times,serif" font-size="14.00" fill="#000000">&lt;mailto:contact.orphanet@inserm.fr&gt; </text>
</a>
</g>
</g>
<!-- N0&#45;&gt;N10 -->
<g id="edge4" class="edge">
<title>N0-&gt;N10</title>
<g id="a_edge4"><a xlink:href="http://www.w3.org/ns/dcat#contactPoint" xlink:title="dcat:contactPoint">
<path fill="none" stroke="#000000" d="M1305.9376,-103.4094C1439.8406,-99.2997 1634.9973,-90.3092 1804.4304,-70.8 1872.7446,-62.934 1949.078,-49.374 2007.5183,-37.9656"/>
<polygon fill="#000000" stroke="#000000" points="2008.3387,-41.3714 2017.4761,-36.0088 2006.9889,-34.5028 2008.3387,-41.3714"/>
</a>
</g>
<g id="a_edge4-label"><a xlink:href="http://www.w3.org/ns/dcat#contactPoint" xlink:title="dcat:contactPoint">
<text text-anchor="middle" x="1961.03" y="-58.2" font-family="Times,serif" font-size="14.00" fill="#000000">dcat:contactPoint</text>
</a>
</g>
</g>
<!-- N6 -->
<g id="node10" class="node">
<title>N6</title>
<g id="a_node10"><a xlink:href="http://www.w3.org/ns/dcat#Resource" xlink:title="&lt;http://edamontology.org/topic_3337&gt;">
<polygon fill="#ffff00" stroke="#ffff00" points="2471.8209,-36 2237.0399,-36 2237.0399,0 2471.8209,0 2471.8209,-36"/>
<text text-anchor="middle" x="2354.4304" y="-13.8" font-family="Times,serif" font-size="14.00" fill="#000000">&lt;http://edamontology.org/topic_3337&gt;</text>
</a>
</g>
</g>
<!-- N0&#45;&gt;N6 -->
<g id="edge12" class="edge">
<title>N0-&gt;N6</title>
<g id="a_edge12"><a xlink:href="http://www.w3.org/ns/dcat#theme" xlink:title="dcat:theme">
<path fill="none" stroke="#000000" d="M1304.0737,-102.3345C1516.4414,-96.0219 1880.5264,-83.8008 2013.4304,-70.8 2091.9752,-63.1167 2179.9827,-49.3589 2246.9144,-37.8132"/>
<polygon fill="#000000" stroke="#000000" points="2247.7973,-41.2124 2257.0514,-36.0537 2246.6001,-34.3155 2247.7973,-41.2124"/>
</a>
</g>
<g id="a_edge12-label"><a xlink:href="http://www.w3.org/ns/dcat#theme" xlink:title="dcat:theme">
<text text-anchor="middle" x="2176.1408" y="-58.2" font-family="Times,serif" font-size="14.00" fill="#000000">dcat:theme</text>
</a>
</g>
</g>
<!-- N12 -->
<g id="node11" class="node">
<title>N12</title>
<g id="a_node11"><a xlink:href="http://www.w3.org/ns/dcat#Resource" xlink:title="&lt;https://tinyurl.com/y573uezs&gt;">
<polygon fill="#ffff00" stroke="#ffff00" points="2681.8196,-36 2489.0412,-36 2489.0412,0 2681.8196,0 2681.8196,-36"/>
<text text-anchor="middle" x="2585.4304" y="-13.8" font-family="Times,serif" font-size="14.00" fill="#000000">&lt;https://tinyurl.com/y573uezs&gt;</text>
</a>
</g>
</g>
<!-- N0&#45;&gt;N12 -->
<g id="edge1" class="edge">
<title>N0-&gt;N12</title>
<g id="a_edge1"><a xlink:href="http://www.w3.org/ns/dcat#landingPage" xlink:title="dcat:landingPage">
<path fill="none" stroke="#000000" d="M1305.5404,-103.2256C1559.0316,-97.285 2039.7048,-84.654 2210.4304,-70.8 2301.5241,-63.408 2404.2592,-48.4755 2479.1337,-36.3712"/>
<polygon fill="#000000" stroke="#000000" points="2479.7384,-39.8189 2489.0468,-34.7588 2478.6146,-32.9097 2479.7384,-39.8189"/>
</a>
</g>
<g id="a_edge1-label"><a xlink:href="http://www.w3.org/ns/dcat#landingPage" xlink:title="dcat:landingPage">
<text text-anchor="middle" x="2403.6394" y="-58.2" font-family="Times,serif" font-size="14.00" fill="#000000">dcat:landingPage</text>
</a>
</g>
</g>
<!-- N2 -->
<g id="node12" class="node">
<title>N2</title>
<g id="a_node12"><a xlink:href="http://www.w3.org/ns/dcat#Resource" xlink:title="2020-09-11T12:15:26.736Z">
<polygon fill="#ffff00" stroke="#ffff00" points="2872.6382,-36 2700.2226,-36 2700.2226,0 2872.6382,0 2872.6382,-36"/>
<text text-anchor="middle" x="2786.4304" y="-13.8" font-family="Times,serif" font-size="14.00" fill="#000000">2020-09-11T12:15:26.736Z</text>
</a>
</g>
</g>
<!-- N0&#45;&gt;N2 -->
<g id="edge19" class="edge">
<title>N0-&gt;N2</title>
<g id="a_edge19"><a xlink:href="http://purl.org/dc/terms/issued" xlink:title="dc:issued">
<path fill="none" stroke="#000000" d="M1307.859,-104.7539C1608.2987,-100.5859 2237.5374,-89.8562 2455.4304,-70.8 2534.9698,-63.8437 2624.3307,-49.1769 2690.137,-37.063"/>
<polygon fill="#000000" stroke="#000000" points="2690.8865,-40.4837 2700.0807,-35.2189 2689.6101,-33.6011 2690.8865,-40.4837"/>
</a>
</g>
<g id="a_edge19-label"><a xlink:href="http://purl.org/dc/terms/issued" xlink:title="dc:issued">
<text text-anchor="middle" x="2609.4802" y="-58.2" font-family="Times,serif" font-size="14.00" fill="#000000">dc:issued</text>
</a>
</g>
</g>
<!-- N0&#45;&gt;N2 -->
<g id="edge20" class="edge">
<title>N0-&gt;N2</title>
<g id="a_edge20"><a xlink:href="http://purl.org/dc/terms/modified" xlink:title="dc:modified">
<path fill="none" stroke="#000000" d="M1308.7501,-105.8085C1670.0743,-103.1997 2511.7408,-94.6237 2639.4304,-70.8 2673.172,-64.5047 2709.4843,-51.5267 2737.5764,-40.0133"/>
<polygon fill="#000000" stroke="#000000" points="2739.2728,-43.098 2747.1524,-36.0154 2736.5759,-36.6383 2739.2728,-43.098"/>
</a>
</g>
<g id="a_edge20-label"><a xlink:href="http://purl.org/dc/terms/modified" xlink:title="dc:modified">
<text text-anchor="middle" x="2731.2565" y="-58.2" font-family="Times,serif" font-size="14.00" fill="#000000">dc:modified</text>
</a>
</g>
</g>
<!-- N4 -->
<g id="node13" class="node">
<title>N4</title>
<g id="a_node13"><a xlink:href="http://www.w3.org/ns/dcat#Resource" xlink:title="&lt;http://id.loc.gov/vocabulary/iso639-1/en&gt;">
<polygon fill="#ffff00" stroke="#ffff00" points="3148.2458,-36 2890.615,-36 2890.615,0 3148.2458,0 3148.2458,-36"/>
<text text-anchor="middle" x="3019.4304" y="-13.8" font-family="Times,serif" font-size="14.00" fill="#000000">&lt;http://id.loc.gov/vocabulary/iso639-1/en&gt;</text>
</a>
</g>
</g>
<!-- N0&#45;&gt;N4 -->
<g id="edge16" class="edge">
<title>N0-&gt;N4</title>
<g id="a_edge16"><a xlink:href="http://purl.org/dc/terms/language" xlink:title="dc:language">
<path fill="none" stroke="#000000" d="M1308.0201,-104.9039C1691.6135,-100.2096 2627.3877,-87.2283 2769.4304,-70.8 2827.5594,-64.077 2892.1616,-50.2632 2941.1318,-38.4513"/>
<polygon fill="#000000" stroke="#000000" points="2942.1358,-41.8091 2951.0232,-36.0415 2940.4789,-35.0081 2942.1358,-41.8091"/>
</a>
</g>
<g id="a_edge16-label"><a xlink:href="http://purl.org/dc/terms/language" xlink:title="dc:language">
<text text-anchor="middle" x="2900.2502" y="-58.2" font-family="Times,serif" font-size="14.00" fill="#000000">dc:language</text>
</a>
</g>
</g>
</g>
</svg>